<?xml version="1.0" encoding="UTF-8"?><svg xmlns="http://www.w3.org/2000/svg" xmlns:xlink="http://www.w3.org/1999/xlink" contentScriptType="text/ecmascript" width="375pt" zoomAndPan="magnify" contentStyleType="text/css" viewBox="0 0 375 374.999991" height="374.999991pt" preserveAspectRatio="xMidYMid meet" version="1.2"><defs><g/></defs><g xml:id="surface1" id="surface1"><g style="fill:rgb(0%,0%,0%);fill-opacity:0.302;"><g transform="translate(38.708384, 175.70101)"><path style="stroke:none;" d="M 4.46875 -3.5625 L 2.875 -3.5625 L 2.875 0 L 0.875 0 L 0.875 -9.71875 L 4.484375 -9.71875 C 5.628906 -9.71875 6.515625 -9.460938 7.140625 -8.953125 C 7.765625 -8.441406 8.078125 -7.71875 8.078125 -6.78125 C 8.078125 -6.113281 7.929688 -5.554688 7.640625 -5.109375 C 7.347656 -4.671875 6.910156 -4.320312 6.328125 -4.0625 L 8.4375 -0.09375 L 8.4375 0 L 6.28125 0 Z M 2.875 -5.1875 L 4.484375 -5.1875 C 4.984375 -5.1875 5.367188 -5.3125 5.640625 -5.5625 C 5.921875 -5.820312 6.0625 -6.175781 6.0625 -6.625 C 6.0625 -7.082031 5.929688 -7.441406 5.671875 -7.703125 C 5.410156 -7.960938 5.015625 -8.09375 4.484375 -8.09375 L 2.875 -8.09375 Z M 2.875 -5.1875 "/></g></g><g style="fill:rgb(0%,0%,0%);fill-opacity:0.302;"><g transform="translate(51.694009, 175.70101)"><path style="stroke:none;" d="M 6.71875 -4.21875 L 2.875 -4.21875 L 2.875 -1.609375 L 7.390625 -1.609375 L 7.390625 0 L 0.875 0 L 0.875 -9.71875 L 7.375 -9.71875 L 7.375 -8.09375 L 2.875 -8.09375 L 2.875 -5.78125 L 6.71875 -5.78125 Z M 6.71875 -4.21875 "/></g></g><g style="fill:rgb(0%,0%,0%);fill-opacity:0.302;"><g transform="translate(63.645488, 175.70101)"><path style="stroke:none;" d="M 8.1875 -8.09375 L 5.203125 -8.09375 L 5.203125 0 L 3.203125 0 L 3.203125 -8.09375 L 0.265625 -8.09375 L 0.265625 -9.71875 L 8.1875 -9.71875 Z M 8.1875 -8.09375 "/></g></g><g style="fill:rgb(0%,0%,0%);fill-opacity:0.302;"><g transform="translate(76.364236, 175.70101)"><path style="stroke:none;" d="M 4.46875 -3.5625 L 2.875 -3.5625 L 2.875 0 L 0.875 0 L 0.875 -9.71875 L 4.484375 -9.71875 C 5.628906 -9.71875 6.515625 -9.460938 7.140625 -8.953125 C 7.765625 -8.441406 8.078125 -7.71875 8.078125 -6.78125 C 8.078125 -6.113281 7.929688 -5.554688 7.640625 -5.109375 C 7.347656 -4.671875 6.910156 -4.320312 6.328125 -4.0625 L 8.4375 -0.09375 L 8.4375 0 L 6.28125 0 Z M 2.875 -5.1875 L 4.484375 -5.1875 C 4.984375 -5.1875 5.367188 -5.3125 5.640625 -5.5625 C 5.921875 -5.820312 6.0625 -6.175781 6.0625 -6.625 C 6.0625 -7.082031 5.929688 -7.441406 5.671875 -7.703125 C 5.410156 -7.960938 5.015625 -8.09375 4.484375 -8.09375 L 2.875 -8.09375 Z M 2.875 -5.1875 "/></g></g><g style="fill:rgb(0%,0%,0%);fill-opacity:0.302;"><g transform="translate(89.34986, 175.70101)"><path style="stroke:none;" d="M 8.859375 -4.640625 C 8.859375 -3.679688 8.6875 -2.84375 8.34375 -2.125 C 8.007812 -1.40625 7.523438 -0.847656 6.890625 -0.453125 C 6.265625 -0.0546875 5.539062 0.140625 4.71875 0.140625 C 3.914062 0.140625 3.195312 -0.0507812 2.5625 -0.4375 C 1.9375 -0.832031 1.445312 -1.390625 1.09375 -2.109375 C 0.75 -2.828125 0.578125 -3.65625 0.578125 -4.59375 L 0.578125 -5.0625 C 0.578125 -6.019531 0.75 -6.863281 1.09375 -7.59375 C 1.4375 -8.320312 1.921875 -8.878906 2.546875 -9.265625 C 3.179688 -9.660156 3.898438 -9.859375 4.703125 -9.859375 C 5.515625 -9.859375 6.234375 -9.660156 6.859375 -9.265625 C 7.492188 -8.878906 7.984375 -8.320312 8.328125 -7.59375 C 8.679688 -6.863281 8.859375 -6.023438 8.859375 -5.078125 Z M 6.828125 -5.078125 C 6.828125 -6.097656 6.644531 -6.875 6.28125 -7.40625 C 5.914062 -7.9375 5.394531 -8.203125 4.71875 -8.203125 C 4.039062 -8.203125 3.519531 -7.9375 3.15625 -7.40625 C 2.789062 -6.882812 2.609375 -6.117188 2.609375 -5.109375 L 2.609375 -4.640625 C 2.609375 -3.648438 2.789062 -2.878906 3.15625 -2.328125 C 3.519531 -1.785156 4.039062 -1.515625 4.71875 -1.515625 C 5.394531 -1.515625 5.910156 -1.773438 6.265625 -2.296875 C 6.628906 -2.828125 6.816406 -3.597656 6.828125 -4.609375 Z M 6.828125 -5.078125 "/></g></g><g style="fill:rgb(0%,0%,0%);fill-opacity:0.302;"><g transform="translate(103.049376, 175.70101)"><path style="stroke:none;" d=""/></g></g><g style="fill:rgb(0%,0%,0%);fill-opacity:0.302;"><g transform="translate(110.717495, 175.70101)"><path style="stroke:none;" d="M 5.90625 -2.546875 C 5.90625 -2.929688 5.769531 -3.222656 5.5 -3.421875 C 5.238281 -3.617188 4.757812 -3.832031 4.0625 -4.0625 C 3.375 -4.289062 2.828125 -4.507812 2.421875 -4.71875 C 1.316406 -5.320312 0.765625 -6.128906 0.765625 -7.140625 C 0.765625 -7.660156 0.910156 -8.125 1.203125 -8.53125 C 1.503906 -8.945312 1.929688 -9.269531 2.484375 -9.5 C 3.035156 -9.738281 3.65625 -9.859375 4.34375 -9.859375 C 5.039062 -9.859375 5.660156 -9.726562 6.203125 -9.46875 C 6.742188 -9.21875 7.164062 -8.863281 7.46875 -8.40625 C 7.769531 -7.945312 7.921875 -7.425781 7.921875 -6.84375 L 5.921875 -6.84375 C 5.921875 -7.289062 5.78125 -7.640625 5.5 -7.890625 C 5.21875 -8.140625 4.820312 -8.265625 4.3125 -8.265625 C 3.820312 -8.265625 3.441406 -8.160156 3.171875 -7.953125 C 2.898438 -7.742188 2.765625 -7.46875 2.765625 -7.125 C 2.765625 -6.8125 2.921875 -6.546875 3.234375 -6.328125 C 3.554688 -6.117188 4.023438 -5.921875 4.640625 -5.734375 C 5.785156 -5.390625 6.617188 -4.960938 7.140625 -4.453125 C 7.660156 -3.953125 7.921875 -3.320312 7.921875 -2.5625 C 7.921875 -1.71875 7.601562 -1.054688 6.96875 -0.578125 C 6.332031 -0.0976562 5.472656 0.140625 4.390625 0.140625 C 3.640625 0.140625 2.957031 0.00390625 2.34375 -0.265625 C 1.726562 -0.546875 1.257812 -0.921875 0.9375 -1.390625 C 0.613281 -1.867188 0.453125 -2.425781 0.453125 -3.0625 L 2.46875 -3.0625 C 2.46875 -1.988281 3.109375 -1.453125 4.390625 -1.453125 C 4.867188 -1.453125 5.238281 -1.546875 5.5 -1.734375 C 5.769531 -1.929688 5.90625 -2.203125 5.90625 -2.546875 Z M 5.90625 -2.546875 "/></g></g><g style="fill:rgb(0%,0%,0%);fill-opacity:0.302;"><g transform="translate(123.382871, 175.70101)"><path style="stroke:none;" d="M 8.1875 -8.09375 L 5.203125 -8.09375 L 5.203125 0 L 3.203125 0 L 3.203125 -8.09375 L 0.265625 -8.09375 L 0.265625 -9.71875 L 8.1875 -9.71875 Z M 8.1875 -8.09375 "/></g></g><g style="fill:rgb(0%,0%,0%);fill-opacity:0.302;"><g transform="translate(136.101616, 175.70101)"><path style="stroke:none;" d="M 4.21875 -5.34375 L 6.234375 -9.71875 L 8.4375 -9.71875 L 5.234375 -3.53125 L 5.234375 0 L 3.203125 0 L 3.203125 -3.53125 L 0.015625 -9.71875 L 2.203125 -9.71875 Z M 4.21875 -5.34375 "/></g></g><g style="fill:rgb(0%,0%,0%);fill-opacity:0.302;"><g transform="translate(148.813689, 175.70101)"><path style="stroke:none;" d="M 2.875 -1.609375 L 7.125 -1.609375 L 7.125 0 L 0.875 0 L 0.875 -9.71875 L 2.875 -9.71875 Z M 2.875 -1.609375 "/></g></g><g style="fill:rgb(0%,0%,0%);fill-opacity:0.302;"><g transform="translate(160.478274, 175.70101)"><path style="stroke:none;" d="M 6.71875 -4.21875 L 2.875 -4.21875 L 2.875 -1.609375 L 7.390625 -1.609375 L 7.390625 0 L 0.875 0 L 0.875 -9.71875 L 7.375 -9.71875 L 7.375 -8.09375 L 2.875 -8.09375 L 2.875 -5.78125 L 6.71875 -5.78125 Z M 6.71875 -4.21875 "/></g></g><g style="fill:rgb(0%,0%,0%);fill-opacity:0.302;"><g transform="translate(172.42975, 175.70101)"><path style="stroke:none;" d="M 5.90625 -2.546875 C 5.90625 -2.929688 5.769531 -3.222656 5.5 -3.421875 C 5.238281 -3.617188 4.757812 -3.832031 4.0625 -4.0625 C 3.375 -4.289062 2.828125 -4.507812 2.421875 -4.71875 C 1.316406 -5.320312 0.765625 -6.128906 0.765625 -7.140625 C 0.765625 -7.660156 0.910156 -8.125 1.203125 -8.53125 C 1.503906 -8.945312 1.929688 -9.269531 2.484375 -9.5 C 3.035156 -9.738281 3.65625 -9.859375 4.34375 -9.859375 C 5.039062 -9.859375 5.660156 -9.726562 6.203125 -9.46875 C 6.742188 -9.21875 7.164062 -8.863281 7.46875 -8.40625 C 7.769531 -7.945312 7.921875 -7.425781 7.921875 -6.84375 L 5.921875 -6.84375 C 5.921875 -7.289062 5.78125 -7.640625 5.5 -7.890625 C 5.21875 -8.140625 4.820312 -8.265625 4.3125 -8.265625 C 3.820312 -8.265625 3.441406 -8.160156 3.171875 -7.953125 C 2.898438 -7.742188 2.765625 -7.46875 2.765625 -7.125 C 2.765625 -6.8125 2.921875 -6.546875 3.234375 -6.328125 C 3.554688 -6.117188 4.023438 -5.921875 4.640625 -5.734375 C 5.785156 -5.390625 6.617188 -4.960938 7.140625 -4.453125 C 7.660156 -3.953125 7.921875 -3.320312 7.921875 -2.5625 C 7.921875 -1.71875 7.601562 -1.054688 6.96875 -0.578125 C 6.332031 -0.0976562 5.472656 0.140625 4.390625 0.140625 C 3.640625 0.140625 2.957031 0.00390625 2.34375 -0.265625 C 1.726562 -0.546875 1.257812 -0.921875 0.9375 -1.390625 C 0.613281 -1.867188 0.453125 -2.425781 0.453125 -3.0625 L 2.46875 -3.0625 C 2.46875 -1.988281 3.109375 -1.453125 4.390625 -1.453125 C 4.867188 -1.453125 5.238281 -1.546875 5.5 -1.734375 C 5.769531 -1.929688 5.90625 -2.203125 5.90625 -2.546875 Z M 5.90625 -2.546875 "/></g></g><g style="fill:rgb(0%,0%,0%);fill-opacity:0.302;"><g transform="translate(185.09512, 175.70101)"><path style="stroke:none;" d=""/></g></g><g style="fill:rgb(0%,0%,0%);fill-opacity:0.302;"><g transform="translate(192.763233, 175.70101)"><path style="stroke:none;" d="M 0.46875 -2.609375 C 0.46875 -3.066406 0.59375 -3.484375 0.84375 -3.859375 C 1.101562 -4.242188 1.566406 -4.671875 2.234375 -5.140625 C 1.941406 -5.523438 1.710938 -5.890625 1.546875 -6.234375 C 1.390625 -6.578125 1.3125 -6.929688 1.3125 -7.296875 C 1.3125 -8.054688 1.550781 -8.671875 2.03125 -9.140625 C 2.507812 -9.617188 3.148438 -9.859375 3.953125 -9.859375 C 4.679688 -9.859375 5.273438 -9.640625 5.734375 -9.203125 C 6.203125 -8.773438 6.4375 -8.238281 6.4375 -7.59375 C 6.4375 -6.8125 6.046875 -6.128906 5.265625 -5.546875 L 4.515625 -5 L 6.1875 -3.046875 C 6.457031 -3.566406 6.59375 -4.140625 6.59375 -4.765625 L 8.234375 -4.765625 C 8.234375 -3.492188 7.941406 -2.46875 7.359375 -1.6875 L 8.8125 0 L 6.625 0 L 6.125 -0.578125 C 5.40625 -0.0976562 4.582031 0.140625 3.65625 0.140625 C 2.6875 0.140625 1.910156 -0.109375 1.328125 -0.609375 C 0.753906 -1.117188 0.46875 -1.785156 0.46875 -2.609375 Z M 3.75 -1.421875 C 4.207031 -1.421875 4.644531 -1.546875 5.0625 -1.796875 L 3.140625 -4.015625 L 3 -3.921875 C 2.601562 -3.578125 2.40625 -3.175781 2.40625 -2.71875 C 2.40625 -2.332031 2.53125 -2.019531 2.78125 -1.78125 C 3.03125 -1.539062 3.351562 -1.421875 3.75 -1.421875 Z M 3.03125 -7.328125 C 3.03125 -6.992188 3.226562 -6.570312 3.625 -6.0625 L 4.140625 -6.40625 C 4.398438 -6.570312 4.578125 -6.734375 4.671875 -6.890625 C 4.773438 -7.054688 4.828125 -7.25 4.828125 -7.46875 C 4.828125 -7.6875 4.742188 -7.878906 4.578125 -8.046875 C 4.421875 -8.210938 4.210938 -8.296875 3.953125 -8.296875 C 3.671875 -8.296875 3.445312 -8.207031 3.28125 -8.03125 C 3.113281 -7.851562 3.03125 -7.617188 3.03125 -7.328125 Z M 3.03125 -7.328125 "/></g></g><g style="fill:rgb(0%,0%,0%);fill-opacity:0.302;"><g transform="translate(205.995715, 175.70101)"><path style="stroke:none;" d=""/></g></g><g style="fill:rgb(0%,0%,0%);fill-opacity:0.302;"><g transform="translate(213.663829, 175.70101)"><path style="stroke:none;" d="M 0.875 0 L 0.875 -9.71875 L 3.859375 -9.71875 C 4.710938 -9.71875 5.472656 -9.523438 6.140625 -9.140625 C 6.816406 -8.753906 7.34375 -8.207031 7.71875 -7.5 C 8.101562 -6.789062 8.296875 -5.984375 8.296875 -5.078125 L 8.296875 -4.640625 C 8.296875 -3.734375 8.109375 -2.925781 7.734375 -2.21875 C 7.367188 -1.519531 6.847656 -0.972656 6.171875 -0.578125 C 5.492188 -0.191406 4.726562 0 3.875 0 Z M 2.875 -8.09375 L 2.875 -1.609375 L 3.84375 -1.609375 C 4.625 -1.609375 5.21875 -1.863281 5.625 -2.375 C 6.039062 -2.882812 6.253906 -3.617188 6.265625 -4.578125 L 6.265625 -5.09375 C 6.265625 -6.070312 6.0625 -6.816406 5.65625 -7.328125 C 5.25 -7.835938 4.648438 -8.09375 3.859375 -8.09375 Z M 2.875 -8.09375 "/></g></g><g style="fill:rgb(0%,0%,0%);fill-opacity:0.302;"><g transform="translate(226.809576, 175.70101)"><path style="stroke:none;" d="M 6.71875 -4.21875 L 2.875 -4.21875 L 2.875 -1.609375 L 7.390625 -1.609375 L 7.390625 0 L 0.875 0 L 0.875 -9.71875 L 7.375 -9.71875 L 7.375 -8.09375 L 2.875 -8.09375 L 2.875 -5.78125 L 6.71875 -5.78125 Z M 6.71875 -4.21875 "/></g></g><g style="fill:rgb(0%,0%,0%);fill-opacity:0.302;"><g transform="translate(238.761052, 175.70101)"><path style="stroke:none;" d="M 5.90625 -2.546875 C 5.90625 -2.929688 5.769531 -3.222656 5.5 -3.421875 C 5.238281 -3.617188 4.757812 -3.832031 4.0625 -4.0625 C 3.375 -4.289062 2.828125 -4.507812 2.421875 -4.71875 C 1.316406 -5.320312 0.765625 -6.128906 0.765625 -7.140625 C 0.765625 -7.660156 0.910156 -8.125 1.203125 -8.53125 C 1.503906 -8.945312 1.929688 -9.269531 2.484375 -9.5 C 3.035156 -9.738281 3.65625 -9.859375 4.34375 -9.859375 C 5.039062 -9.859375 5.660156 -9.726562 6.203125 -9.46875 C 6.742188 -9.21875 7.164062 -8.863281 7.46875 -8.40625 C 7.769531 -7.945312 7.921875 -7.425781 7.921875 -6.84375 L 5.921875 -6.84375 C 5.921875 -7.289062 5.78125 -7.640625 5.5 -7.890625 C 5.21875 -8.140625 4.820312 -8.265625 4.3125 -8.265625 C 3.820312 -8.265625 3.441406 -8.160156 3.171875 -7.953125 C 2.898438 -7.742188 2.765625 -7.46875 2.765625 -7.125 C 2.765625 -6.8125 2.921875 -6.546875 3.234375 -6.328125 C 3.554688 -6.117188 4.023438 -5.921875 4.640625 -5.734375 C 5.785156 -5.390625 6.617188 -4.960938 7.140625 -4.453125 C 7.660156 -3.953125 7.921875 -3.320312 7.921875 -2.5625 C 7.921875 -1.71875 7.601562 -1.054688 6.96875 -0.578125 C 6.332031 -0.0976562 5.472656 0.140625 4.390625 0.140625 C 3.640625 0.140625 2.957031 0.00390625 2.34375 -0.265625 C 1.726562 -0.546875 1.257812 -0.921875 0.9375 -1.390625 C 0.613281 -1.867188 0.453125 -2.425781 0.453125 -3.0625 L 2.46875 -3.0625 C 2.46875 -1.988281 3.109375 -1.453125 4.390625 -1.453125 C 4.867188 -1.453125 5.238281 -1.546875 5.5 -1.734375 C 5.769531 -1.929688 5.90625 -2.203125 5.90625 -2.546875 Z M 5.90625 -2.546875 "/></g></g><g style="fill:rgb(0%,0%,0%);fill-opacity:0.302;"><g transform="translate(251.426434, 175.70101)"><path style="stroke:none;" d="M 3 0 L 1 0 L 1 -9.71875 L 3 -9.71875 Z M 3 0 "/></g></g><g style="fill:rgb(0%,0%,0%);fill-opacity:0.302;"><g transform="translate(259.675014, 175.70101)"><path style="stroke:none;" d="M 8.5625 -1.234375 C 8.195312 -0.796875 7.6875 -0.457031 7.03125 -0.21875 C 6.375 0.0195312 5.644531 0.140625 4.84375 0.140625 C 4 0.140625 3.257812 -0.0390625 2.625 -0.40625 C 1.988281 -0.78125 1.5 -1.316406 1.15625 -2.015625 C 0.8125 -2.710938 0.632812 -3.535156 0.625 -4.484375 L 0.625 -5.140625 C 0.625 -6.109375 0.785156 -6.945312 1.109375 -7.65625 C 1.441406 -8.363281 1.914062 -8.90625 2.53125 -9.28125 C 3.144531 -9.664062 3.867188 -9.859375 4.703125 -9.859375 C 5.847656 -9.859375 6.742188 -9.582031 7.390625 -9.03125 C 8.046875 -8.476562 8.4375 -7.675781 8.5625 -6.625 L 6.609375 -6.625 C 6.515625 -7.1875 6.316406 -7.59375 6.015625 -7.84375 C 5.710938 -8.101562 5.296875 -8.234375 4.765625 -8.234375 C 4.078125 -8.234375 3.554688 -7.976562 3.203125 -7.46875 C 2.847656 -6.957031 2.664062 -6.195312 2.65625 -5.1875 L 2.65625 -4.5625 C 2.65625 -3.539062 2.847656 -2.769531 3.234375 -2.25 C 3.628906 -1.726562 4.203125 -1.46875 4.953125 -1.46875 C 5.703125 -1.46875 6.238281 -1.628906 6.5625 -1.953125 L 6.5625 -3.625 L 4.734375 -3.625 L 4.734375 -5.109375 L 8.5625 -5.109375 Z M 8.5625 -1.234375 "/></g></g><g style="fill:rgb(0%,0%,0%);fill-opacity:0.302;"><g transform="translate(273.247775, 175.70101)"><path style="stroke:none;" d="M 8.765625 0 L 6.765625 0 L 2.875 -6.390625 L 2.875 0 L 0.875 0 L 0.875 -9.71875 L 2.875 -9.71875 L 6.78125 -3.3125 L 6.78125 -9.71875 L 8.765625 -9.71875 Z M 8.765625 0 "/></g></g><g style="fill:rgb(0%,0%,0%);fill-opacity:0.302;"><g transform="translate(287.160791, 175.70101)"><path style="stroke:none;" d="M 5.90625 -2.546875 C 5.90625 -2.929688 5.769531 -3.222656 5.5 -3.421875 C 5.238281 -3.617188 4.757812 -3.832031 4.0625 -4.0625 C 3.375 -4.289062 2.828125 -4.507812 2.421875 -4.71875 C 1.316406 -5.320312 0.765625 -6.128906 0.765625 -7.140625 C 0.765625 -7.660156 0.910156 -8.125 1.203125 -8.53125 C 1.503906 -8.945312 1.929688 -9.269531 2.484375 -9.5 C 3.035156 -9.738281 3.65625 -9.859375 4.34375 -9.859375 C 5.039062 -9.859375 5.660156 -9.726562 6.203125 -9.46875 C 6.742188 -9.21875 7.164062 -8.863281 7.46875 -8.40625 C 7.769531 -7.945312 7.921875 -7.425781 7.921875 -6.84375 L 5.921875 -6.84375 C 5.921875 -7.289062 5.78125 -7.640625 5.5 -7.890625 C 5.21875 -8.140625 4.820312 -8.265625 4.3125 -8.265625 C 3.820312 -8.265625 3.441406 -8.160156 3.171875 -7.953125 C 2.898438 -7.742188 2.765625 -7.46875 2.765625 -7.125 C 2.765625 -6.8125 2.921875 -6.546875 3.234375 -6.328125 C 3.554688 -6.117188 4.023438 -5.921875 4.640625 -5.734375 C 5.785156 -5.390625 6.617188 -4.960938 7.140625 -4.453125 C 7.660156 -3.953125 7.921875 -3.320312 7.921875 -2.5625 C 7.921875 -1.71875 7.601562 -1.054688 6.96875 -0.578125 C 6.332031 -0.0976562 5.472656 0.140625 4.390625 0.140625 C 3.640625 0.140625 2.957031 0.00390625 2.34375 -0.265625 C 1.726562 -0.546875 1.257812 -0.921875 0.9375 -1.390625 C 0.613281 -1.867188 0.453125 -2.425781 0.453125 -3.0625 L 2.46875 -3.0625 C 2.46875 -1.988281 3.109375 -1.453125 4.390625 -1.453125 C 4.867188 -1.453125 5.238281 -1.546875 5.5 -1.734375 C 5.769531 -1.929688 5.90625 -2.203125 5.90625 -2.546875 Z M 5.90625 -2.546875 "/></g></g><g style="fill:rgb(0%,0%,0%);fill-opacity:0.502;"><g transform="translate(38.104195, 175.09682)"><path style="stroke:none;" d="M 4.46875 -3.5625 L 2.875 -3.5625 L 2.875 0 L 0.875 0 L 0.875 -9.71875 L 4.484375 -9.71875 C 5.628906 -9.71875 6.515625 -9.460938 7.140625 -8.953125 C 7.765625 -8.441406 8.078125 -7.71875 8.078125 -6.78125 C 8.078125 -6.113281 7.929688 -5.554688 7.640625 -5.109375 C 7.347656 -4.671875 6.910156 -4.320312 6.328125 -4.0625 L 8.4375 -0.09375 L 8.4375 0 L 6.28125 0 Z M 2.875 -5.1875 L 4.484375 -5.1875 C 4.984375 -5.1875 5.367188 -5.3125 5.640625 -5.5625 C 5.921875 -5.820312 6.0625 -6.175781 6.0625 -6.625 C 6.0625 -7.082031 5.929688 -7.441406 5.671875 -7.703125 C 5.410156 -7.960938 5.015625 -8.09375 4.484375 -8.09375 L 2.875 -8.09375 Z M 2.875 -5.1875 "/></g></g><g style="fill:rgb(0%,0%,0%);fill-opacity:0.502;"><g transform="translate(51.089819, 175.09682)"><path style="stroke:none;" d="M 6.71875 -4.21875 L 2.875 -4.21875 L 2.875 -1.609375 L 7.390625 -1.609375 L 7.390625 0 L 0.875 0 L 0.875 -9.71875 L 7.375 -9.71875 L 7.375 -8.09375 L 2.875 -8.09375 L 2.875 -5.78125 L 6.71875 -5.78125 Z M 6.71875 -4.21875 "/></g></g><g style="fill:rgb(0%,0%,0%);fill-opacity:0.502;"><g transform="translate(63.041299, 175.09682)"><path style="stroke:none;" d="M 8.1875 -8.09375 L 5.203125 -8.09375 L 5.203125 0 L 3.203125 0 L 3.203125 -8.09375 L 0.265625 -8.09375 L 0.265625 -9.71875 L 8.1875 -9.71875 Z M 8.1875 -8.09375 "/></g></g><g style="fill:rgb(0%,0%,0%);fill-opacity:0.502;"><g transform="translate(75.760047, 175.09682)"><path style="stroke:none;" d="M 4.46875 -3.5625 L 2.875 -3.5625 L 2.875 0 L 0.875 0 L 0.875 -9.71875 L 4.484375 -9.71875 C 5.628906 -9.71875 6.515625 -9.460938 7.140625 -8.953125 C 7.765625 -8.441406 8.078125 -7.71875 8.078125 -6.78125 C 8.078125 -6.113281 7.929688 -5.554688 7.640625 -5.109375 C 7.347656 -4.671875 6.910156 -4.320312 6.328125 -4.0625 L 8.4375 -0.09375 L 8.4375 0 L 6.28125 0 Z M 2.875 -5.1875 L 4.484375 -5.1875 C 4.984375 -5.1875 5.367188 -5.3125 5.640625 -5.5625 C 5.921875 -5.820312 6.0625 -6.175781 6.0625 -6.625 C 6.0625 -7.082031 5.929688 -7.441406 5.671875 -7.703125 C 5.410156 -7.960938 5.015625 -8.09375 4.484375 -8.09375 L 2.875 -8.09375 Z M 2.875 -5.1875 "/></g></g><g style="fill:rgb(0%,0%,0%);fill-opacity:0.502;"><g transform="translate(88.745671, 175.09682)"><path style="stroke:none;" d="M 8.859375 -4.640625 C 8.859375 -3.679688 8.6875 -2.84375 8.34375 -2.125 C 8.007812 -1.40625 7.523438 -0.847656 6.890625 -0.453125 C 6.265625 -0.0546875 5.539062 0.140625 4.71875 0.140625 C 3.914062 0.140625 3.195312 -0.0507812 2.5625 -0.4375 C 1.9375 -0.832031 1.445312 -1.390625 1.09375 -2.109375 C 0.75 -2.828125 0.578125 -3.65625 0.578125 -4.59375 L 0.578125 -5.0625 C 0.578125 -6.019531 0.75 -6.863281 1.09375 -7.59375 C 1.4375 -8.320312 1.921875 -8.878906 2.546875 -9.265625 C 3.179688 -9.660156 3.898438 -9.859375 4.703125 -9.859375 C 5.515625 -9.859375 6.234375 -9.660156 6.859375 -9.265625 C 7.492188 -8.878906 7.984375 -8.320312 8.328125 -7.59375 C 8.679688 -6.863281 8.859375 -6.023438 8.859375 -5.078125 Z M 6.828125 -5.078125 C 6.828125 -6.097656 6.644531 -6.875 6.28125 -7.40625 C 5.914062 -7.9375 5.394531 -8.203125 4.71875 -8.203125 C 4.039062 -8.203125 3.519531 -7.9375 3.15625 -7.40625 C 2.789062 -6.882812 2.609375 -6.117188 2.609375 -5.109375 L 2.609375 -4.640625 C 2.609375 -3.648438 2.789062 -2.878906 3.15625 -2.328125 C 3.519531 -1.785156 4.039062 -1.515625 4.71875 -1.515625 C 5.394531 -1.515625 5.910156 -1.773438 6.265625 -2.296875 C 6.628906 -2.828125 6.816406 -3.597656 6.828125 -4.609375 Z M 6.828125 -5.078125 "/></g></g><g style="fill:rgb(0%,0%,0%);fill-opacity:0.502;"><g transform="translate(102.445187, 175.09682)"><path style="stroke:none;" d=""/></g></g><g style="fill:rgb(0%,0%,0%);fill-opacity:0.502;"><g transform="translate(110.113306, 175.09682)"><path style="stroke:none;" d="M 5.90625 -2.546875 C 5.90625 -2.929688 5.769531 -3.222656 5.5 -3.421875 C 5.238281 -3.617188 4.757812 -3.832031 4.0625 -4.0625 C 3.375 -4.289062 2.828125 -4.507812 2.421875 -4.71875 C 1.316406 -5.320312 0.765625 -6.128906 0.765625 -7.140625 C 0.765625 -7.660156 0.910156 -8.125 1.203125 -8.53125 C 1.503906 -8.945312 1.929688 -9.269531 2.484375 -9.5 C 3.035156 -9.738281 3.65625 -9.859375 4.34375 -9.859375 C 5.039062 -9.859375 5.660156 -9.726562 6.203125 -9.46875 C 6.742188 -9.21875 7.164062 -8.863281 7.46875 -8.40625 C 7.769531 -7.945312 7.921875 -7.425781 7.921875 -6.84375 L 5.921875 -6.84375 C 5.921875 -7.289062 5.78125 -7.640625 5.5 -7.890625 C 5.21875 -8.140625 4.820312 -8.265625 4.3125 -8.265625 C 3.820312 -8.265625 3.441406 -8.160156 3.171875 -7.953125 C 2.898438 -7.742188 2.765625 -7.46875 2.765625 -7.125 C 2.765625 -6.8125 2.921875 -6.546875 3.234375 -6.328125 C 3.554688 -6.117188 4.023438 -5.921875 4.640625 -5.734375 C 5.785156 -5.390625 6.617188 -4.960938 7.140625 -4.453125 C 7.660156 -3.953125 7.921875 -3.320312 7.921875 -2.5625 C 7.921875 -1.71875 7.601562 -1.054688 6.96875 -0.578125 C 6.332031 -0.0976562 5.472656 0.140625 4.390625 0.140625 C 3.640625 0.140625 2.957031 0.00390625 2.34375 -0.265625 C 1.726562 -0.546875 1.257812 -0.921875 0.9375 -1.390625 C 0.613281 -1.867188 0.453125 -2.425781 0.453125 -3.0625 L 2.46875 -3.0625 C 2.46875 -1.988281 3.109375 -1.453125 4.390625 -1.453125 C 4.867188 -1.453125 5.238281 -1.546875 5.5 -1.734375 C 5.769531 -1.929688 5.90625 -2.203125 5.90625 -2.546875 Z M 5.90625 -2.546875 "/></g></g><g style="fill:rgb(0%,0%,0%);fill-opacity:0.502;"><g transform="translate(122.778682, 175.09682)"><path style="stroke:none;" d="M 8.1875 -8.09375 L 5.203125 -8.09375 L 5.203125 0 L 3.203125 0 L 3.203125 -8.09375 L 0.265625 -8.09375 L 0.265625 -9.71875 L 8.1875 -9.71875 Z M 8.1875 -8.09375 "/></g></g><g style="fill:rgb(0%,0%,0%);fill-opacity:0.502;"><g transform="translate(135.497427, 175.09682)"><path style="stroke:none;" d="M 4.21875 -5.34375 L 6.234375 -9.71875 L 8.4375 -9.71875 L 5.234375 -3.53125 L 5.234375 0 L 3.203125 0 L 3.203125 -3.53125 L 0.015625 -9.71875 L 2.203125 -9.71875 Z M 4.21875 -5.34375 "/></g></g><g style="fill:rgb(0%,0%,0%);fill-opacity:0.502;"><g transform="translate(148.2095, 175.09682)"><path style="stroke:none;" d="M 2.875 -1.609375 L 7.125 -1.609375 L 7.125 0 L 0.875 0 L 0.875 -9.71875 L 2.875 -9.71875 Z M 2.875 -1.609375 "/></g></g><g style="fill:rgb(0%,0%,0%);fill-opacity:0.502;"><g transform="translate(159.874084, 175.09682)"><path style="stroke:none;" d="M 6.71875 -4.21875 L 2.875 -4.21875 L 2.875 -1.609375 L 7.390625 -1.609375 L 7.390625 0 L 0.875 0 L 0.875 -9.71875 L 7.375 -9.71875 L 7.375 -8.09375 L 2.875 -8.09375 L 2.875 -5.78125 L 6.71875 -5.78125 Z M 6.71875 -4.21875 "/></g></g><g style="fill:rgb(0%,0%,0%);fill-opacity:0.502;"><g transform="translate(171.82556, 175.09682)"><path style="stroke:none;" d="M 5.90625 -2.546875 C 5.90625 -2.929688 5.769531 -3.222656 5.5 -3.421875 C 5.238281 -3.617188 4.757812 -3.832031 4.0625 -4.0625 C 3.375 -4.289062 2.828125 -4.507812 2.421875 -4.71875 C 1.316406 -5.320312 0.765625 -6.128906 0.765625 -7.140625 C 0.765625 -7.660156 0.910156 -8.125 1.203125 -8.53125 C 1.503906 -8.945312 1.929688 -9.269531 2.484375 -9.5 C 3.035156 -9.738281 3.65625 -9.859375 4.34375 -9.859375 C 5.039062 -9.859375 5.660156 -9.726562 6.203125 -9.46875 C 6.742188 -9.21875 7.164062 -8.863281 7.46875 -8.40625 C 7.769531 -7.945312 7.921875 -7.425781 7.921875 -6.84375 L 5.921875 -6.84375 C 5.921875 -7.289062 5.78125 -7.640625 5.5 -7.890625 C 5.21875 -8.140625 4.820312 -8.265625 4.3125 -8.265625 C 3.820312 -8.265625 3.441406 -8.160156 3.171875 -7.953125 C 2.898438 -7.742188 2.765625 -7.46875 2.765625 -7.125 C 2.765625 -6.8125 2.921875 -6.546875 3.234375 -6.328125 C 3.554688 -6.117188 4.023438 -5.921875 4.640625 -5.734375 C 5.785156 -5.390625 6.617188 -4.960938 7.140625 -4.453125 C 7.660156 -3.953125 7.921875 -3.320312 7.921875 -2.5625 C 7.921875 -1.71875 7.601562 -1.054688 6.96875 -0.578125 C 6.332031 -0.0976562 5.472656 0.140625 4.390625 0.140625 C 3.640625 0.140625 2.957031 0.00390625 2.34375 -0.265625 C 1.726562 -0.546875 1.257812 -0.921875 0.9375 -1.390625 C 0.613281 -1.867188 0.453125 -2.425781 0.453125 -3.0625 L 2.46875 -3.0625 C 2.46875 -1.988281 3.109375 -1.453125 4.390625 -1.453125 C 4.867188 -1.453125 5.238281 -1.546875 5.5 -1.734375 C 5.769531 -1.929688 5.90625 -2.203125 5.90625 -2.546875 Z M 5.90625 -2.546875 "/></g></g><g style="fill:rgb(0%,0%,0%);fill-opacity:0.502;"><g transform="translate(184.49093, 175.09682)"><path style="stroke:none;" d=""/></g></g><g style="fill:rgb(0%,0%,0%);fill-opacity:0.502;"><g transform="translate(192.159044, 175.09682)"><path style="stroke:none;" d="M 0.46875 -2.609375 C 0.46875 -3.066406 0.59375 -3.484375 0.84375 -3.859375 C 1.101562 -4.242188 1.566406 -4.671875 2.234375 -5.140625 C 1.941406 -5.523438 1.710938 -5.890625 1.546875 -6.234375 C 1.390625 -6.578125 1.3125 -6.929688 1.3125 -7.296875 C 1.3125 -8.054688 1.550781 -8.671875 2.03125 -9.140625 C 2.507812 -9.617188 3.148438 -9.859375 3.953125 -9.859375 C 4.679688 -9.859375 5.273438 -9.640625 5.734375 -9.203125 C 6.203125 -8.773438 6.4375 -8.238281 6.4375 -7.59375 C 6.4375 -6.8125 6.046875 -6.128906 5.265625 -5.546875 L 4.515625 -5 L 6.1875 -3.046875 C 6.457031 -3.566406 6.59375 -4.140625 6.59375 -4.765625 L 8.234375 -4.765625 C 8.234375 -3.492188 7.941406 -2.46875 7.359375 -1.6875 L 8.8125 0 L 6.625 0 L 6.125 -0.578125 C 5.40625 -0.0976562 4.582031 0.140625 3.65625 0.140625 C 2.6875 0.140625 1.910156 -0.109375 1.328125 -0.609375 C 0.753906 -1.117188 0.46875 -1.785156 0.46875 -2.609375 Z M 3.75 -1.421875 C 4.207031 -1.421875 4.644531 -1.546875 5.0625 -1.796875 L 3.140625 -4.015625 L 3 -3.921875 C 2.601562 -3.578125 2.40625 -3.175781 2.40625 -2.71875 C 2.40625 -2.332031 2.53125 -2.019531 2.78125 -1.78125 C 3.03125 -1.539062 3.351562 -1.421875 3.75 -1.421875 Z M 3.03125 -7.328125 C 3.03125 -6.992188 3.226562 -6.570312 3.625 -6.0625 L 4.140625 -6.40625 C 4.398438 -6.570312 4.578125 -6.734375 4.671875 -6.890625 C 4.773438 -7.054688 4.828125 -7.25 4.828125 -7.46875 C 4.828125 -7.6875 4.742188 -7.878906 4.578125 -8.046875 C 4.421875 -8.210938 4.210938 -8.296875 3.953125 -8.296875 C 3.671875 -8.296875 3.445312 -8.207031 3.28125 -8.03125 C 3.113281 -7.851562 3.03125 -7.617188 3.03125 -7.328125 Z M 3.03125 -7.328125 "/></g></g><g style="fill:rgb(0%,0%,0%);fill-opacity:0.502;"><g transform="translate(205.391526, 175.09682)"><path style="stroke:none;" d=""/></g></g><g style="fill:rgb(0%,0%,0%);fill-opacity:0.502;"><g transform="translate(213.059639, 175.09682)"><path style="stroke:none;" d="M 0.875 0 L 0.875 -9.71875 L 3.859375 -9.71875 C 4.710938 -9.71875 5.472656 -9.523438 6.140625 -9.140625 C 6.816406 -8.753906 7.34375 -8.207031 7.71875 -7.5 C 8.101562 -6.789062 8.296875 -5.984375 8.296875 -5.078125 L 8.296875 -4.640625 C 8.296875 -3.734375 8.109375 -2.925781 7.734375 -2.21875 C 7.367188 -1.519531 6.847656 -0.972656 6.171875 -0.578125 C 5.492188 -0.191406 4.726562 0 3.875 0 Z M 2.875 -8.09375 L 2.875 -1.609375 L 3.84375 -1.609375 C 4.625 -1.609375 5.21875 -1.863281 5.625 -2.375 C 6.039062 -2.882812 6.253906 -3.617188 6.265625 -4.578125 L 6.265625 -5.09375 C 6.265625 -6.070312 6.0625 -6.816406 5.65625 -7.328125 C 5.25 -7.835938 4.648438 -8.09375 3.859375 -8.09375 Z M 2.875 -8.09375 "/></g></g><g style="fill:rgb(0%,0%,0%);fill-opacity:0.502;"><g transform="translate(226.205386, 175.09682)"><path style="stroke:none;" d="M 6.71875 -4.21875 L 2.875 -4.21875 L 2.875 -1.609375 L 7.390625 -1.609375 L 7.390625 0 L 0.875 0 L 0.875 -9.71875 L 7.375 -9.71875 L 7.375 -8.09375 L 2.875 -8.09375 L 2.875 -5.78125 L 6.71875 -5.78125 Z M 6.71875 -4.21875 "/></g></g><g style="fill:rgb(0%,0%,0%);fill-opacity:0.502;"><g transform="translate(238.156863, 175.09682)"><path style="stroke:none;" d="M 5.90625 -2.546875 C 5.90625 -2.929688 5.769531 -3.222656 5.5 -3.421875 C 5.238281 -3.617188 4.757812 -3.832031 4.0625 -4.0625 C 3.375 -4.289062 2.828125 -4.507812 2.421875 -4.71875 C 1.316406 -5.320312 0.765625 -6.128906 0.765625 -7.140625 C 0.765625 -7.660156 0.910156 -8.125 1.203125 -8.53125 C 1.503906 -8.945312 1.929688 -9.269531 2.484375 -9.5 C 3.035156 -9.738281 3.65625 -9.859375 4.34375 -9.859375 C 5.039062 -9.859375 5.660156 -9.726562 6.203125 -9.46875 C 6.742188 -9.21875 7.164062 -8.863281 7.46875 -8.40625 C 7.769531 -7.945312 7.921875 -7.425781 7.921875 -6.84375 L 5.921875 -6.84375 C 5.921875 -7.289062 5.78125 -7.640625 5.5 -7.890625 C 5.21875 -8.140625 4.820312 -8.265625 4.3125 -8.265625 C 3.820312 -8.265625 3.441406 -8.160156 3.171875 -7.953125 C 2.898438 -7.742188 2.765625 -7.46875 2.765625 -7.125 C 2.765625 -6.8125 2.921875 -6.546875 3.234375 -6.328125 C 3.554688 -6.117188 4.023438 -5.921875 4.640625 -5.734375 C 5.785156 -5.390625 6.617188 -4.960938 7.140625 -4.453125 C 7.660156 -3.953125 7.921875 -3.320312 7.921875 -2.5625 C 7.921875 -1.71875 7.601562 -1.054688 6.96875 -0.578125 C 6.332031 -0.0976562 5.472656 0.140625 4.390625 0.140625 C 3.640625 0.140625 2.957031 0.00390625 2.34375 -0.265625 C 1.726562 -0.546875 1.257812 -0.921875 0.9375 -1.390625 C 0.613281 -1.867188 0.453125 -2.425781 0.453125 -3.0625 L 2.46875 -3.0625 C 2.46875 -1.988281 3.109375 -1.453125 4.390625 -1.453125 C 4.867188 -1.453125 5.238281 -1.546875 5.5 -1.734375 C 5.769531 -1.929688 5.90625 -2.203125 5.90625 -2.546875 Z M 5.90625 -2.546875 "/></g></g><g style="fill:rgb(0%,0%,0%);fill-opacity:0.502;"><g transform="translate(250.822244, 175.09682)"><path style="stroke:none;" d="M 3 0 L 1 0 L 1 -9.71875 L 3 -9.71875 Z M 3 0 "/></g></g><g style="fill:rgb(0%,0%,0%);fill-opacity:0.502;"><g transform="translate(259.070825, 175.09682)"><path style="stroke:none;" d="M 8.5625 -1.234375 C 8.195312 -0.796875 7.6875 -0.457031 7.03125 -0.21875 C 6.375 0.0195312 5.644531 0.140625 4.84375 0.140625 C 4 0.140625 3.257812 -0.0390625 2.625 -0.40625 C 1.988281 -0.78125 1.5 -1.316406 1.15625 -2.015625 C 0.8125 -2.710938 0.632812 -3.535156 0.625 -4.484375 L 0.625 -5.140625 C 0.625 -6.109375 0.785156 -6.945312 1.109375 -7.65625 C 1.441406 -8.363281 1.914062 -8.90625 2.53125 -9.28125 C 3.144531 -9.664062 3.867188 -9.859375 4.703125 -9.859375 C 5.847656 -9.859375 6.742188 -9.582031 7.390625 -9.03125 C 8.046875 -8.476562 8.4375 -7.675781 8.5625 -6.625 L 6.609375 -6.625 C 6.515625 -7.1875 6.316406 -7.59375 6.015625 -7.84375 C 5.710938 -8.101562 5.296875 -8.234375 4.765625 -8.234375 C 4.078125 -8.234375 3.554688 -7.976562 3.203125 -7.46875 C 2.847656 -6.957031 2.664062 -6.195312 2.65625 -5.1875 L 2.65625 -4.5625 C 2.65625 -3.539062 2.847656 -2.769531 3.234375 -2.25 C 3.628906 -1.726562 4.203125 -1.46875 4.953125 -1.46875 C 5.703125 -1.46875 6.238281 -1.628906 6.5625 -1.953125 L 6.5625 -3.625 L 4.734375 -3.625 L 4.734375 -5.109375 L 8.5625 -5.109375 Z M 8.5625 -1.234375 "/></g></g><g style="fill:rgb(0%,0%,0%);fill-opacity:0.502;"><g transform="translate(272.643585, 175.09682)"><path style="stroke:none;" d="M 8.765625 0 L 6.765625 0 L 2.875 -6.390625 L 2.875 0 L 0.875 0 L 0.875 -9.71875 L 2.875 -9.71875 L 6.78125 -3.3125 L 6.78125 -9.71875 L 8.765625 -9.71875 Z M 8.765625 0 "/></g></g><g style="fill:rgb(0%,0%,0%);fill-opacity:0.502;"><g transform="translate(286.556602, 175.09682)"><path style="stroke:none;" d="M 5.90625 -2.546875 C 5.90625 -2.929688 5.769531 -3.222656 5.5 -3.421875 C 5.238281 -3.617188 4.757812 -3.832031 4.0625 -4.0625 C 3.375 -4.289062 2.828125 -4.507812 2.421875 -4.71875 C 1.316406 -5.320312 0.765625 -6.128906 0.765625 -7.140625 C 0.765625 -7.660156 0.910156 -8.125 1.203125 -8.53125 C 1.503906 -8.945312 1.929688 -9.269531 2.484375 -9.5 C 3.035156 -9.738281 3.65625 -9.859375 4.34375 -9.859375 C 5.039062 -9.859375 5.660156 -9.726562 6.203125 -9.46875 C 6.742188 -9.21875 7.164062 -8.863281 7.46875 -8.40625 C 7.769531 -7.945312 7.921875 -7.425781 7.921875 -6.84375 L 5.921875 -6.84375 C 5.921875 -7.289062 5.78125 -7.640625 5.5 -7.890625 C 5.21875 -8.140625 4.820312 -8.265625 4.3125 -8.265625 C 3.820312 -8.265625 3.441406 -8.160156 3.171875 -7.953125 C 2.898438 -7.742188 2.765625 -7.46875 2.765625 -7.125 C 2.765625 -6.8125 2.921875 -6.546875 3.234375 -6.328125 C 3.554688 -6.117188 4.023438 -5.921875 4.640625 -5.734375 C 5.785156 -5.390625 6.617188 -4.960938 7.140625 -4.453125 C 7.660156 -3.953125 7.921875 -3.320312 7.921875 -2.5625 C 7.921875 -1.71875 7.601562 -1.054688 6.96875 -0.578125 C 6.332031 -0.0976562 5.472656 0.140625 4.390625 0.140625 C 3.640625 0.140625 2.957031 0.00390625 2.34375 -0.265625 C 1.726562 -0.546875 1.257812 -0.921875 0.9375 -1.390625 C 0.613281 -1.867188 0.453125 -2.425781 0.453125 -3.0625 L 2.46875 -3.0625 C 2.46875 -1.988281 3.109375 -1.453125 4.390625 -1.453125 C 4.867188 -1.453125 5.238281 -1.546875 5.5 -1.734375 C 5.769531 -1.929688 5.90625 -2.203125 5.90625 -2.546875 Z M 5.90625 -2.546875 "/></g></g><g style="fill:rgb(100%,100%,100%);fill-opacity:1;"><g transform="translate(37.500002, 174.492629)"><path style="stroke:none;" d="M 4.46875 -3.5625 L 2.875 -3.5625 L 2.875 0 L 0.875 0 L 0.875 -9.71875 L 4.484375 -9.71875 C 5.628906 -9.71875 6.515625 -9.460938 7.140625 -8.953125 C 7.765625 -8.441406 8.078125 -7.71875 8.078125 -6.78125 C 8.078125 -6.113281 7.929688 -5.554688 7.640625 -5.109375 C 7.347656 -4.671875 6.910156 -4.320312 6.328125 -4.0625 L 8.4375 -0.09375 L 8.4375 0 L 6.28125 0 Z M 2.875 -5.1875 L 4.484375 -5.1875 C 4.984375 -5.1875 5.367188 -5.3125 5.640625 -5.5625 C 5.921875 -5.820312 6.0625 -6.175781 6.0625 -6.625 C 6.0625 -7.082031 5.929688 -7.441406 5.671875 -7.703125 C 5.410156 -7.960938 5.015625 -8.09375 4.484375 -8.09375 L 2.875 -8.09375 Z M 2.875 -5.1875 "/></g></g><g style="fill:rgb(100%,100%,100%);fill-opacity:1;"><g transform="translate(50.485626, 174.492629)"><path style="stroke:none;" d="M 6.71875 -4.21875 L 2.875 -4.21875 L 2.875 -1.609375 L 7.390625 -1.609375 L 7.390625 0 L 0.875 0 L 0.875 -9.71875 L 7.375 -9.71875 L 7.375 -8.09375 L 2.875 -8.09375 L 2.875 -5.78125 L 6.71875 -5.78125 Z M 6.71875 -4.21875 "/></g></g><g style="fill:rgb(100%,100%,100%);fill-opacity:1;"><g transform="translate(62.437106, 174.492629)"><path style="stroke:none;" d="M 8.1875 -8.09375 L 5.203125 -8.09375 L 5.203125 0 L 3.203125 0 L 3.203125 -8.09375 L 0.265625 -8.09375 L 0.265625 -9.71875 L 8.1875 -9.71875 Z M 8.1875 -8.09375 "/></g></g><g style="fill:rgb(100%,100%,100%);fill-opacity:1;"><g transform="translate(75.155854, 174.492629)"><path style="stroke:none;" d="M 4.46875 -3.5625 L 2.875 -3.5625 L 2.875 0 L 0.875 0 L 0.875 -9.71875 L 4.484375 -9.71875 C 5.628906 -9.71875 6.515625 -9.460938 7.140625 -8.953125 C 7.765625 -8.441406 8.078125 -7.71875 8.078125 -6.78125 C 8.078125 -6.113281 7.929688 -5.554688 7.640625 -5.109375 C 7.347656 -4.671875 6.910156 -4.320312 6.328125 -4.0625 L 8.4375 -0.09375 L 8.4375 0 L 6.28125 0 Z M 2.875 -5.1875 L 4.484375 -5.1875 C 4.984375 -5.1875 5.367188 -5.3125 5.640625 -5.5625 C 5.921875 -5.820312 6.0625 -6.175781 6.0625 -6.625 C 6.0625 -7.082031 5.929688 -7.441406 5.671875 -7.703125 C 5.410156 -7.960938 5.015625 -8.09375 4.484375 -8.09375 L 2.875 -8.09375 Z M 2.875 -5.1875 "/></g></g><g style="fill:rgb(100%,100%,100%);fill-opacity:1;"><g transform="translate(88.141478, 174.492629)"><path style="stroke:none;" d="M 8.859375 -4.640625 C 8.859375 -3.679688 8.6875 -2.84375 8.34375 -2.125 C 8.007812 -1.40625 7.523438 -0.847656 6.890625 -0.453125 C 6.265625 -0.0546875 5.539062 0.140625 4.71875 0.140625 C 3.914062 0.140625 3.195312 -0.0507812 2.5625 -0.4375 C 1.9375 -0.832031 1.445312 -1.390625 1.09375 -2.109375 C 0.75 -2.828125 0.578125 -3.65625 0.578125 -4.59375 L 0.578125 -5.0625 C 0.578125 -6.019531 0.75 -6.863281 1.09375 -7.59375 C 1.4375 -8.320312 1.921875 -8.878906 2.546875 -9.265625 C 3.179688 -9.660156 3.898438 -9.859375 4.703125 -9.859375 C 5.515625 -9.859375 6.234375 -9.660156 6.859375 -9.265625 C 7.492188 -8.878906 7.984375 -8.320312 8.328125 -7.59375 C 8.679688 -6.863281 8.859375 -6.023438 8.859375 -5.078125 Z M 6.828125 -5.078125 C 6.828125 -6.097656 6.644531 -6.875 6.28125 -7.40625 C 5.914062 -7.9375 5.394531 -8.203125 4.71875 -8.203125 C 4.039062 -8.203125 3.519531 -7.9375 3.15625 -7.40625 C 2.789062 -6.882812 2.609375 -6.117188 2.609375 -5.109375 L 2.609375 -4.640625 C 2.609375 -3.648438 2.789062 -2.878906 3.15625 -2.328125 C 3.519531 -1.785156 4.039062 -1.515625 4.71875 -1.515625 C 5.394531 -1.515625 5.910156 -1.773438 6.265625 -2.296875 C 6.628906 -2.828125 6.816406 -3.597656 6.828125 -4.609375 Z M 6.828125 -5.078125 "/></g></g><g style="fill:rgb(100%,100%,100%);fill-opacity:1;"><g transform="translate(101.840994, 174.492629)"><path style="stroke:none;" d=""/></g></g><g style="fill:rgb(100%,100%,100%);fill-opacity:1;"><g transform="translate(109.509113, 174.492629)"><path style="stroke:none;" d="M 5.90625 -2.546875 C 5.90625 -2.929688 5.769531 -3.222656 5.5 -3.421875 C 5.238281 -3.617188 4.757812 -3.832031 4.0625 -4.0625 C 3.375 -4.289062 2.828125 -4.507812 2.421875 -4.71875 C 1.316406 -5.320312 0.765625 -6.128906 0.765625 -7.140625 C 0.765625 -7.660156 0.910156 -8.125 1.203125 -8.53125 C 1.503906 -8.945312 1.929688 -9.269531 2.484375 -9.5 C 3.035156 -9.738281 3.65625 -9.859375 4.34375 -9.859375 C 5.039062 -9.859375 5.660156 -9.726562 6.203125 -9.46875 C 6.742188 -9.21875 7.164062 -8.863281 7.46875 -8.40625 C 7.769531 -7.945312 7.921875 -7.425781 7.921875 -6.84375 L 5.921875 -6.84375 C 5.921875 -7.289062 5.78125 -7.640625 5.5 -7.890625 C 5.21875 -8.140625 4.820312 -8.265625 4.3125 -8.265625 C 3.820312 -8.265625 3.441406 -8.160156 3.171875 -7.953125 C 2.898438 -7.742188 2.765625 -7.46875 2.765625 -7.125 C 2.765625 -6.8125 2.921875 -6.546875 3.234375 -6.328125 C 3.554688 -6.117188 4.023438 -5.921875 4.640625 -5.734375 C 5.785156 -5.390625 6.617188 -4.960938 7.140625 -4.453125 C 7.660156 -3.953125 7.921875 -3.320312 7.921875 -2.5625 C 7.921875 -1.71875 7.601562 -1.054688 6.96875 -0.578125 C 6.332031 -0.0976562 5.472656 0.140625 4.390625 0.140625 C 3.640625 0.140625 2.957031 0.00390625 2.34375 -0.265625 C 1.726562 -0.546875 1.257812 -0.921875 0.9375 -1.390625 C 0.613281 -1.867188 0.453125 -2.425781 0.453125 -3.0625 L 2.46875 -3.0625 C 2.46875 -1.988281 3.109375 -1.453125 4.390625 -1.453125 C 4.867188 -1.453125 5.238281 -1.546875 5.5 -1.734375 C 5.769531 -1.929688 5.90625 -2.203125 5.90625 -2.546875 Z M 5.90625 -2.546875 "/></g></g><g style="fill:rgb(100%,100%,100%);fill-opacity:1;"><g transform="translate(122.174489, 174.492629)"><path style="stroke:none;" d="M 8.1875 -8.09375 L 5.203125 -8.09375 L 5.203125 0 L 3.203125 0 L 3.203125 -8.09375 L 0.265625 -8.09375 L 0.265625 -9.71875 L 8.1875 -9.71875 Z M 8.1875 -8.09375 "/></g></g><g style="fill:rgb(100%,100%,100%);fill-opacity:1;"><g transform="translate(134.893234, 174.492629)"><path style="stroke:none;" d="M 4.21875 -5.34375 L 6.234375 -9.71875 L 8.4375 -9.71875 L 5.234375 -3.53125 L 5.234375 0 L 3.203125 0 L 3.203125 -3.53125 L 0.015625 -9.71875 L 2.203125 -9.71875 Z M 4.21875 -5.34375 "/></g></g><g style="fill:rgb(100%,100%,100%);fill-opacity:1;"><g transform="translate(147.605307, 174.492629)"><path style="stroke:none;" d="M 2.875 -1.609375 L 7.125 -1.609375 L 7.125 0 L 0.875 0 L 0.875 -9.71875 L 2.875 -9.71875 Z M 2.875 -1.609375 "/></g></g><g style="fill:rgb(100%,100%,100%);fill-opacity:1;"><g transform="translate(159.269891, 174.492629)"><path style="stroke:none;" d="M 6.71875 -4.21875 L 2.875 -4.21875 L 2.875 -1.609375 L 7.390625 -1.609375 L 7.390625 0 L 0.875 0 L 0.875 -9.71875 L 7.375 -9.71875 L 7.375 -8.09375 L 2.875 -8.09375 L 2.875 -5.78125 L 6.71875 -5.78125 Z M 6.71875 -4.21875 "/></g></g><g style="fill:rgb(100%,100%,100%);fill-opacity:1;"><g transform="translate(171.221367, 174.492629)"><path style="stroke:none;" d="M 5.90625 -2.546875 C 5.90625 -2.929688 5.769531 -3.222656 5.5 -3.421875 C 5.238281 -3.617188 4.757812 -3.832031 4.0625 -4.0625 C 3.375 -4.289062 2.828125 -4.507812 2.421875 -4.71875 C 1.316406 -5.320312 0.765625 -6.128906 0.765625 -7.140625 C 0.765625 -7.660156 0.910156 -8.125 1.203125 -8.53125 C 1.503906 -8.945312 1.929688 -9.269531 2.484375 -9.5 C 3.035156 -9.738281 3.65625 -9.859375 4.34375 -9.859375 C 5.039062 -9.859375 5.660156 -9.726562 6.203125 -9.46875 C 6.742188 -9.21875 7.164062 -8.863281 7.46875 -8.40625 C 7.769531 -7.945312 7.921875 -7.425781 7.921875 -6.84375 L 5.921875 -6.84375 C 5.921875 -7.289062 5.78125 -7.640625 5.5 -7.890625 C 5.21875 -8.140625 4.820312 -8.265625 4.3125 -8.265625 C 3.820312 -8.265625 3.441406 -8.160156 3.171875 -7.953125 C 2.898438 -7.742188 2.765625 -7.46875 2.765625 -7.125 C 2.765625 -6.8125 2.921875 -6.546875 3.234375 -6.328125 C 3.554688 -6.117188 4.023438 -5.921875 4.640625 -5.734375 C 5.785156 -5.390625 6.617188 -4.960938 7.140625 -4.453125 C 7.660156 -3.953125 7.921875 -3.320312 7.921875 -2.5625 C 7.921875 -1.71875 7.601562 -1.054688 6.96875 -0.578125 C 6.332031 -0.0976562 5.472656 0.140625 4.390625 0.140625 C 3.640625 0.140625 2.957031 0.00390625 2.34375 -0.265625 C 1.726562 -0.546875 1.257812 -0.921875 0.9375 -1.390625 C 0.613281 -1.867188 0.453125 -2.425781 0.453125 -3.0625 L 2.46875 -3.0625 C 2.46875 -1.988281 3.109375 -1.453125 4.390625 -1.453125 C 4.867188 -1.453125 5.238281 -1.546875 5.5 -1.734375 C 5.769531 -1.929688 5.90625 -2.203125 5.90625 -2.546875 Z M 5.90625 -2.546875 "/></g></g><g style="fill:rgb(100%,100%,100%);fill-opacity:1;"><g transform="translate(183.886737, 174.492629)"><path style="stroke:none;" d=""/></g></g><g style="fill:rgb(100%,100%,100%);fill-opacity:1;"><g transform="translate(191.554851, 174.492629)"><path style="stroke:none;" d="M 0.46875 -2.609375 C 0.46875 -3.066406 0.59375 -3.484375 0.84375 -3.859375 C 1.101562 -4.242188 1.566406 -4.671875 2.234375 -5.140625 C 1.941406 -5.523438 1.710938 -5.890625 1.546875 -6.234375 C 1.390625 -6.578125 1.3125 -6.929688 1.3125 -7.296875 C 1.3125 -8.054688 1.550781 -8.671875 2.03125 -9.140625 C 2.507812 -9.617188 3.148438 -9.859375 3.953125 -9.859375 C 4.679688 -9.859375 5.273438 -9.640625 5.734375 -9.203125 C 6.203125 -8.773438 6.4375 -8.238281 6.4375 -7.59375 C 6.4375 -6.8125 6.046875 -6.128906 5.265625 -5.546875 L 4.515625 -5 L 6.1875 -3.046875 C 6.457031 -3.566406 6.59375 -4.140625 6.59375 -4.765625 L 8.234375 -4.765625 C 8.234375 -3.492188 7.941406 -2.46875 7.359375 -1.6875 L 8.8125 0 L 6.625 0 L 6.125 -0.578125 C 5.40625 -0.0976562 4.582031 0.140625 3.65625 0.140625 C 2.6875 0.140625 1.910156 -0.109375 1.328125 -0.609375 C 0.753906 -1.117188 0.46875 -1.785156 0.46875 -2.609375 Z M 3.75 -1.421875 C 4.207031 -1.421875 4.644531 -1.546875 5.0625 -1.796875 L 3.140625 -4.015625 L 3 -3.921875 C 2.601562 -3.578125 2.40625 -3.175781 2.40625 -2.71875 C 2.40625 -2.332031 2.53125 -2.019531 2.78125 -1.78125 C 3.03125 -1.539062 3.351562 -1.421875 3.75 -1.421875 Z M 3.03125 -7.328125 C 3.03125 -6.992188 3.226562 -6.570312 3.625 -6.0625 L 4.140625 -6.40625 C 4.398438 -6.570312 4.578125 -6.734375 4.671875 -6.890625 C 4.773438 -7.054688 4.828125 -7.25 4.828125 -7.46875 C 4.828125 -7.6875 4.742188 -7.878906 4.578125 -8.046875 C 4.421875 -8.210938 4.210938 -8.296875 3.953125 -8.296875 C 3.671875 -8.296875 3.445312 -8.207031 3.28125 -8.03125 C 3.113281 -7.851562 3.03125 -7.617188 3.03125 -7.328125 Z M 3.03125 -7.328125 "/></g></g><g style="fill:rgb(100%,100%,100%);fill-opacity:1;"><g transform="translate(204.787333, 174.492629)"><path style="stroke:none;" d=""/></g></g><g style="fill:rgb(100%,100%,100%);fill-opacity:1;"><g transform="translate(212.455446, 174.492629)"><path style="stroke:none;" d="M 0.875 0 L 0.875 -9.71875 L 3.859375 -9.71875 C 4.710938 -9.71875 5.472656 -9.523438 6.140625 -9.140625 C 6.816406 -8.753906 7.34375 -8.207031 7.71875 -7.5 C 8.101562 -6.789062 8.296875 -5.984375 8.296875 -5.078125 L 8.296875 -4.640625 C 8.296875 -3.734375 8.109375 -2.925781 7.734375 -2.21875 C 7.367188 -1.519531 6.847656 -0.972656 6.171875 -0.578125 C 5.492188 -0.191406 4.726562 0 3.875 0 Z M 2.875 -8.09375 L 2.875 -1.609375 L 3.84375 -1.609375 C 4.625 -1.609375 5.21875 -1.863281 5.625 -2.375 C 6.039062 -2.882812 6.253906 -3.617188 6.265625 -4.578125 L 6.265625 -5.09375 C 6.265625 -6.070312 6.0625 -6.816406 5.65625 -7.328125 C 5.25 -7.835938 4.648438 -8.09375 3.859375 -8.09375 Z M 2.875 -8.09375 "/></g></g><g style="fill:rgb(100%,100%,100%);fill-opacity:1;"><g transform="translate(225.601193, 174.492629)"><path style="stroke:none;" d="M 6.71875 -4.21875 L 2.875 -4.21875 L 2.875 -1.609375 L 7.390625 -1.609375 L 7.390625 0 L 0.875 0 L 0.875 -9.71875 L 7.375 -9.71875 L 7.375 -8.09375 L 2.875 -8.09375 L 2.875 -5.78125 L 6.71875 -5.78125 Z M 6.71875 -4.21875 "/></g></g><g style="fill:rgb(100%,100%,100%);fill-opacity:1;"><g transform="translate(237.55267, 174.492629)"><path style="stroke:none;" d="M 5.90625 -2.546875 C 5.90625 -2.929688 5.769531 -3.222656 5.5 -3.421875 C 5.238281 -3.617188 4.757812 -3.832031 4.0625 -4.0625 C 3.375 -4.289062 2.828125 -4.507812 2.421875 -4.71875 C 1.316406 -5.320312 0.765625 -6.128906 0.765625 -7.140625 C 0.765625 -7.660156 0.910156 -8.125 1.203125 -8.53125 C 1.503906 -8.945312 1.929688 -9.269531 2.484375 -9.5 C 3.035156 -9.738281 3.65625 -9.859375 4.34375 -9.859375 C 5.039062 -9.859375 5.660156 -9.726562 6.203125 -9.46875 C 6.742188 -9.21875 7.164062 -8.863281 7.46875 -8.40625 C 7.769531 -7.945312 7.921875 -7.425781 7.921875 -6.84375 L 5.921875 -6.84375 C 5.921875 -7.289062 5.78125 -7.640625 5.5 -7.890625 C 5.21875 -8.140625 4.820312 -8.265625 4.3125 -8.265625 C 3.820312 -8.265625 3.441406 -8.160156 3.171875 -7.953125 C 2.898438 -7.742188 2.765625 -7.46875 2.765625 -7.125 C 2.765625 -6.8125 2.921875 -6.546875 3.234375 -6.328125 C 3.554688 -6.117188 4.023438 -5.921875 4.640625 -5.734375 C 5.785156 -5.390625 6.617188 -4.960938 7.140625 -4.453125 C 7.660156 -3.953125 7.921875 -3.320312 7.921875 -2.5625 C 7.921875 -1.71875 7.601562 -1.054688 6.96875 -0.578125 C 6.332031 -0.0976562 5.472656 0.140625 4.390625 0.140625 C 3.640625 0.140625 2.957031 0.00390625 2.34375 -0.265625 C 1.726562 -0.546875 1.257812 -0.921875 0.9375 -1.390625 C 0.613281 -1.867188 0.453125 -2.425781 0.453125 -3.0625 L 2.46875 -3.0625 C 2.46875 -1.988281 3.109375 -1.453125 4.390625 -1.453125 C 4.867188 -1.453125 5.238281 -1.546875 5.5 -1.734375 C 5.769531 -1.929688 5.90625 -2.203125 5.90625 -2.546875 Z M 5.90625 -2.546875 "/></g></g><g style="fill:rgb(100%,100%,100%);fill-opacity:1;"><g transform="translate(250.218051, 174.492629)"><path style="stroke:none;" d="M 3 0 L 1 0 L 1 -9.71875 L 3 -9.71875 Z M 3 0 "/></g></g><g style="fill:rgb(100%,100%,100%);fill-opacity:1;"><g transform="translate(258.466632, 174.492629)"><path style="stroke:none;" d="M 8.5625 -1.234375 C 8.195312 -0.796875 7.6875 -0.457031 7.03125 -0.21875 C 6.375 0.0195312 5.644531 0.140625 4.84375 0.140625 C 4 0.140625 3.257812 -0.0390625 2.625 -0.40625 C 1.988281 -0.78125 1.5 -1.316406 1.15625 -2.015625 C 0.8125 -2.710938 0.632812 -3.535156 0.625 -4.484375 L 0.625 -5.140625 C 0.625 -6.109375 0.785156 -6.945312 1.109375 -7.65625 C 1.441406 -8.363281 1.914062 -8.90625 2.53125 -9.28125 C 3.144531 -9.664062 3.867188 -9.859375 4.703125 -9.859375 C 5.847656 -9.859375 6.742188 -9.582031 7.390625 -9.03125 C 8.046875 -8.476562 8.4375 -7.675781 8.5625 -6.625 L 6.609375 -6.625 C 6.515625 -7.1875 6.316406 -7.59375 6.015625 -7.84375 C 5.710938 -8.101562 5.296875 -8.234375 4.765625 -8.234375 C 4.078125 -8.234375 3.554688 -7.976562 3.203125 -7.46875 C 2.847656 -6.957031 2.664062 -6.195312 2.65625 -5.1875 L 2.65625 -4.5625 C 2.65625 -3.539062 2.847656 -2.769531 3.234375 -2.25 C 3.628906 -1.726562 4.203125 -1.46875 4.953125 -1.46875 C 5.703125 -1.46875 6.238281 -1.628906 6.5625 -1.953125 L 6.5625 -3.625 L 4.734375 -3.625 L 4.734375 -5.109375 L 8.5625 -5.109375 Z M 8.5625 -1.234375 "/></g></g><g style="fill:rgb(100%,100%,100%);fill-opacity:1;"><g transform="translate(272.039392, 174.492629)"><path style="stroke:none;" d="M 8.765625 0 L 6.765625 0 L 2.875 -6.390625 L 2.875 0 L 0.875 0 L 0.875 -9.71875 L 2.875 -9.71875 L 6.78125 -3.3125 L 6.78125 -9.71875 L 8.765625 -9.71875 Z M 8.765625 0 "/></g></g><g style="fill:rgb(100%,100%,100%);fill-opacity:1;"><g transform="translate(285.952409, 174.492629)"><path style="stroke:none;" d="M 5.90625 -2.546875 C 5.90625 -2.929688 5.769531 -3.222656 5.5 -3.421875 C 5.238281 -3.617188 4.757812 -3.832031 4.0625 -4.0625 C 3.375 -4.289062 2.828125 -4.507812 2.421875 -4.71875 C 1.316406 -5.320312 0.765625 -6.128906 0.765625 -7.140625 C 0.765625 -7.660156 0.910156 -8.125 1.203125 -8.53125 C 1.503906 -8.945312 1.929688 -9.269531 2.484375 -9.5 C 3.035156 -9.738281 3.65625 -9.859375 4.34375 -9.859375 C 5.039062 -9.859375 5.660156 -9.726562 6.203125 -9.46875 C 6.742188 -9.21875 7.164062 -8.863281 7.46875 -8.40625 C 7.769531 -7.945312 7.921875 -7.425781 7.921875 -6.84375 L 5.921875 -6.84375 C 5.921875 -7.289062 5.78125 -7.640625 5.5 -7.890625 C 5.21875 -8.140625 4.820312 -8.265625 4.3125 -8.265625 C 3.820312 -8.265625 3.441406 -8.160156 3.171875 -7.953125 C 2.898438 -7.742188 2.765625 -7.46875 2.765625 -7.125 C 2.765625 -6.8125 2.921875 -6.546875 3.234375 -6.328125 C 3.554688 -6.117188 4.023438 -5.921875 4.640625 -5.734375 C 5.785156 -5.390625 6.617188 -4.960938 7.140625 -4.453125 C 7.660156 -3.953125 7.921875 -3.320312 7.921875 -2.5625 C 7.921875 -1.71875 7.601562 -1.054688 6.96875 -0.578125 C 6.332031 -0.0976562 5.472656 0.140625 4.390625 0.140625 C 3.640625 0.140625 2.957031 0.00390625 2.34375 -0.265625 C 1.726562 -0.546875 1.257812 -0.921875 0.9375 -1.390625 C 0.613281 -1.867188 0.453125 -2.425781 0.453125 -3.0625 L 2.46875 -3.0625 C 2.46875 -1.988281 3.109375 -1.453125 4.390625 -1.453125 C 4.867188 -1.453125 5.238281 -1.546875 5.5 -1.734375 C 5.769531 -1.929688 5.90625 -2.203125 5.90625 -2.546875 Z M 5.90625 -2.546875 "/></g></g><path style="fill:none;stroke-width:1.599266;stroke-linecap:butt;stroke-linejoin:miter;stroke:rgb(100%,100%,100%);stroke-opacity:1;stroke-miterlimit:4;" d="M 29.551882 38.000769 L 23.921674 18.261185 L 18.291465 38.000769 L 9.380006 38.000769 L -0.63562 2.823684 L 8.275839 2.823684 L 14.281048 26.953894 L 14.499798 26.953894 L 20.895632 2.823684 L 26.952924 2.823684 L 33.343549 26.953894 L 33.562299 26.953894 L 39.567508 2.823684 L 48.4373 2.823684 L 38.411258 38.000769 Z M 72.47376 2.823684 L 86.671678 38.000769 L 78.062302 38.000769 L 75.458135 30.964311 L 62.072718 30.964311 L 59.468551 38.000769 L 50.848759 38.000769 L 65.051885 2.823684 Z M 72.734177 23.927852 L 68.807093 13.693476 L 68.72376 13.693476 L 64.801885 23.927852 Z M 100.307095 2.823684 L 100.307095 30.964311 L 112.411263 30.964311 L 112.411263 38.000769 L 92.29147 38.000769 L 92.29147 2.823684 Z M 128.656056 2.823684 L 128.656056 30.964311 L 140.760223 30.964311 L 140.760223 38.000769 L 120.64043 38.000769 L 120.64043 2.823684 Z M 169.109183 2.823684 L 169.109183 9.860142 L 156.999807 9.860142 L 156.999807 16.844518 L 168.598766 16.844518 L 168.598766 23.886185 L 156.999807 23.886185 L 156.999807 30.964311 L 169.109183 30.964311 L 169.109183 38.000769 L 148.984182 38.000769 L 148.984182 2.823684 Z M 185.989393 16.167435 L 185.989393 38.000769 L 177.973767 38.000769 L 177.973767 2.823684 L 185.989393 2.823684 L 199.96856 24.65181 L 200.051894 24.65181 L 200.051894 2.823684 L 208.077936 2.823684 L 208.077936 38.000769 L 200.051894 38.000769 L 186.072726 16.167435 Z M 237.567521 2.823684 L 237.567521 9.860142 L 225.463354 9.860142 L 225.463354 16.844518 L 237.057104 16.844518 L 237.057104 23.886185 L 225.463354 23.886185 L 225.463354 30.964311 L 237.567521 30.964311 L 237.567521 38.000769 L 217.447728 38.000769 L 217.447728 2.823684 Z M 246.432105 2.823684 L 259.010231 2.823684 C 262.395648 2.823684 265.156064 3.724725 267.286273 5.532017 C 269.416481 7.334101 270.478982 9.912226 270.478982 13.266393 C 270.478982 15.854935 269.833148 18.021601 268.536273 19.771601 C 267.244606 21.521602 265.489398 22.750768 263.275856 23.459102 L 275.385232 38.000769 L 265.192523 38.000769 L 254.44773 24.104935 L 254.44773 38.000769 L 246.432105 38.000769 Z M 254.44773 18.427851 L 255.385231 18.427851 C 256.119606 18.427851 256.744606 18.417435 257.260231 18.386185 C 257.775856 18.360143 258.359189 18.261185 259.010231 18.094518 C 259.661272 17.922643 260.187314 17.677851 260.583148 17.365351 C 260.984189 17.047643 261.327939 16.58931 261.609189 15.990351 C 261.895648 15.396601 262.036273 14.672643 262.036273 13.828893 C 262.036273 12.974726 261.895648 12.250768 261.609189 11.651809 C 261.327939 11.052851 260.984189 10.599726 260.583148 10.287226 C 260.187314 9.974726 259.661272 9.735142 259.010231 9.558059 C 258.359189 9.386184 257.775856 9.287226 257.260231 9.255976 C 256.744606 9.229934 256.119606 9.214309 255.385231 9.214309 L 254.44773 9.214309 Z M 297.119608 2.823684 L 307.312317 2.823684 C 312.197734 2.823684 316.374818 4.495559 319.843568 7.828892 C 323.312318 11.167434 325.051902 15.354935 325.051902 20.386185 C 325.051902 25.443477 323.322735 29.646602 319.864401 32.990352 C 316.411276 36.328894 312.223776 38.000769 307.312317 38.000769 L 297.119608 38.000769 Z M 305.135234 30.839311 L 306.374817 30.839311 C 309.296692 30.839311 311.687318 29.849727 313.546693 27.880977 C 315.411276 25.90181 316.359193 23.417435 316.390443 20.427852 C 316.390443 17.443476 315.458151 14.959101 313.598776 12.974726 C 311.739401 10.979934 309.327942 9.985142 306.374817 9.985142 L 305.135234 9.985142 Z M 352.963362 2.823684 L 352.963362 9.860142 L 340.859194 9.860142 L 340.859194 16.844518 L 352.452945 16.844518 L 352.452945 23.886185 L 340.859194 23.886185 L 340.859194 30.964311 L 352.963362 30.964311 L 352.963362 38.000769 L 332.843569 38.000769 L 332.843569 2.823684 Z M 374.791488 2.17785 C 376.69253 2.17785 378.551905 2.453892 380.369614 3.011184 C 382.192531 3.568475 383.546697 4.11535 384.426906 4.657017 L 385.708156 5.511184 L 382.463364 11.901809 C 382.202947 11.735143 381.84878 11.516393 381.390447 11.245559 C 380.937322 10.974726 380.088364 10.615351 378.838364 10.162226 C 377.588364 9.703892 376.421697 9.474726 375.338363 9.474726 C 374.010238 9.474726 372.978988 9.761184 372.249822 10.328893 C 371.525863 10.896601 371.166488 11.667434 371.166488 12.630976 C 371.166488 13.115351 371.338363 13.563268 371.676905 13.974726 C 372.015447 14.380976 372.59878 14.823684 373.426905 15.297643 C 374.249822 15.761185 374.97378 16.136185 375.59878 16.417435 C 376.22378 16.703893 377.19253 17.130976 378.494614 17.698685 C 380.770655 18.672643 382.713364 19.990351 384.312322 21.657018 C 385.926906 23.313268 386.728989 25.193477 386.728989 27.297644 C 386.728989 29.318477 386.364406 31.078894 385.635239 32.589311 C 384.916489 34.094519 383.916489 35.271602 382.650864 36.125769 C 381.385239 36.979936 379.989405 37.610144 378.452947 38.021603 C 376.921697 38.427853 375.25503 38.636186 373.468572 38.636186 C 371.932113 38.636186 370.426905 38.479936 368.947738 38.167436 C 367.468571 37.854936 366.234196 37.464311 365.234196 37.000769 C 364.239404 36.526811 363.343571 36.068478 362.546696 35.615353 C 361.755029 35.157019 361.171696 34.771602 360.796696 34.459102 L 360.244612 33.990352 L 364.255029 27.255977 C 364.593571 27.542435 365.062321 27.907019 365.661279 28.349727 C 366.255029 28.787227 367.312321 29.375769 368.833155 30.12056 C 370.359196 30.854936 371.708155 31.224727 372.874822 31.224727 C 376.25503 31.224727 377.94253 30.068477 377.94253 27.766394 C 377.94253 27.282019 377.822739 26.834102 377.577947 26.422644 C 377.338364 26.016394 376.91128 25.604935 376.296697 25.193477 C 375.687322 24.77681 375.145655 24.448685 374.676905 24.209102 C 374.208155 23.96431 373.44253 23.594518 372.374822 23.104935 C 371.312321 22.604935 370.525863 22.224727 370.010238 21.969518 C 367.88003 20.912227 366.234196 19.599726 365.067529 18.021601 C 363.900863 16.448685 363.317529 14.750768 363.317529 12.933059 C 363.317529 9.776809 364.484196 7.193476 366.812321 5.188267 C 369.145655 3.183059 371.807113 2.17785 374.791488 2.17785 Z M 402.755032 2.823684 L 402.755032 38.000769 L 394.739406 38.000769 L 394.739406 2.823684 Z M 443.932118 18.302851 L 443.932118 25.93306 C 443.025868 30.110144 441.036284 33.271602 437.968576 35.417436 C 434.900867 37.563269 431.473784 38.636186 427.692534 38.636186 C 422.947742 38.636186 418.900866 36.860144 415.557116 33.302852 C 412.218574 29.750769 410.546699 25.459102 410.546699 20.427852 C 410.546699 15.313268 412.182116 10.990351 415.452949 7.469517 C 418.718575 3.943475 422.801908 2.17785 427.692534 2.17785 C 433.406076 2.17785 437.921701 4.183059 441.249826 8.193476 L 436.010242 13.953893 C 434.130034 10.938268 431.51545 9.433059 428.161284 9.433059 C 425.692533 9.433059 423.583158 10.505976 421.833158 12.651809 C 420.083158 14.797643 419.208158 17.386185 419.208158 20.427852 C 419.208158 23.417435 420.083158 25.974727 421.833158 28.08931 C 423.583158 30.203894 425.692533 31.266394 428.161284 31.266394 C 430.208159 31.266394 431.994617 30.646602 433.510242 29.412227 C 435.031076 28.167435 435.791492 26.52681 435.791492 24.485143 L 427.692534 24.485143 L 427.692534 18.302851 Z M 459.744619 16.167435 L 459.744619 38.000769 L 451.728993 38.000769 L 451.728993 2.823684 L 459.744619 2.823684 L 473.728995 24.65181 L 473.812328 24.65181 L 473.812328 2.823684 L 481.83837 2.823684 L 481.83837 38.000769 L 473.812328 38.000769 L 459.827952 16.167435 Z M 459.744619 16.167435 " transform="matrix(0.75,0,0,0.75,9.656402,115.386144)"/><path style="fill:none;stroke-width:1;stroke-linecap:round;stroke-linejoin:miter;stroke:rgb(100%,100%,100%);stroke-opacity:1;stroke-miterlimit:4;" d="M 4.000794 0.00136095 L 483.124035 0.00136095 " transform="matrix(0.749832,0,0,0.75,4.828203,154.745073)"/><path style="fill:none;stroke-width:1;stroke-linecap:butt;stroke-linejoin:round;stroke:rgb(100%,100%,100%);stroke-opacity:1;stroke-miterlimit:4;" d="M 0.500008 -1.498639 L 3.500682 -1.498639 L 3.500682 1.501361 L 0.500008 1.501361 Z M 0.500008 -1.498639 " transform="matrix(0.749832,0,0,0.75,4.828203,154.745073)"/><path style="fill:none;stroke-width:1;stroke-linecap:butt;stroke-linejoin:round;stroke:rgb(100%,100%,100%);stroke-opacity:1;stroke-miterlimit:4;" d="M -3.500681 -1.498639 L -0.500007 -1.498639 L -0.500007 1.501361 L -3.500681 1.501361 Z M -3.500681 -1.498639 " transform="matrix(0.749832,0,0,0.75,370.089765,154.745073)"/></g></svg>